<svg xmlns="http://www.w3.org/2000/svg" xmlns:xlink="http://www.w3.org/1999/xlink" width="1536" height="600" viewBox="0 0 1536 600">
  <defs>
    <clipPath id="clip-does-home-insurance-cover-water-damage_hero-block-image">
      <rect width="1536" height="600"/>
    </clipPath>
  </defs>
  <g id="does-home-insurance-cover-water-damage_hero-block-image" clip-path="url(#clip-does-home-insurance-cover-water-damage_hero-block-image)">
    <rect width="1536" height="600" fill="#fff"/>
    <g id="Group_16436" data-name="Group 16436" transform="translate(-193.937 -307.38)">
      <rect id="Rectangle_8431" data-name="Rectangle 8431" width="241.601" height="659.914" transform="translate(1518.643 295.951)" fill="#3b8dfe"/>
      <g id="hero-does-home-insurance-cover-water-damage" transform="translate(-575 -82)">
        <rect id="Rectangle_959" data-name="Rectangle 959" width="2134.411" height="1023.383" transform="translate(0.477 0.305)" fill="#1ba199"/>
        <path id="Path_76179" data-name="Path 76179" d="M1362.294,897.627a21.619,21.619,0,0,1,18.589-32.656H1450.9a7.082,7.082,0,0,1,6.876-5.427h88.839a4.775,4.775,0,0,1,4.775,4.775v.654h5.078a31.522,31.522,0,0,1,26.986,15.361l38.435,64.733,3.27-13.073,108.054-31.012v-.3L1625.156,931.2a538.858,538.858,0,0,1-11.468-101.142L1562.1,753.788l-7.151,2.891h0l-96.812,39.138-2.009,16.316a25.282,25.282,0,0,1-25.092,22.192h-58.249l-2.374,4.569a28.434,28.434,0,0,1-32.567,13.887l-6.616-1.824a28.435,28.435,0,0,1-20.752-24.72l-2.778-29.2a42.269,42.269,0,0,1-47.664-68.237l13.272-13.273,37.962-37.962L1306.6,639.6c-4.981-3.223-7.761-6.779-7.761-10.521,0-14.466,41.305-26.2,92.406-26.315V542.184h1.483v60.582c23.883.053,45.627,2.642,62.013,6.865l.2-.214L1441.5,599.99a7.413,7.413,0,0,1-1.81-10.326h0a7.413,7.413,0,0,1,9.164-2.477l15.474,7.114h0l3.419,1.572h0l6.757-7.145a23.278,23.278,0,0,1,33.584.989l67.052,74.15c27.726-15.51,51.2-28.236,64.84-34.787,14.979-7.194,26.089-9.01,34.329-7.8l.85-26.585-19.707-7.784a25.352,25.352,0,0,1-15.805-26.69l6.318-23.172-8.579-6.593a7.578,7.578,0,0,1,2.493-11.752L1651.892,511a50.719,50.719,0,0,0,18.279-20.607l8.225-17.023a50.877,50.877,0,0,1,10.574-15.912,51.448,51.448,0,0,1,43.574-15.093l.665.088V351.425h468.365V0H1392.726V507.786h-1.483V0H0V1023.136H1343.753l46.2-78.921Zm45.631-306.74a1.875,1.875,0,1,1,1.875-1.875A1.875,1.875,0,0,1,1407.925,590.887Zm-.741-269.859h1.483V441.917h-1.483Zm.741,129.282a2.5,2.5,0,1,1-2.5,2.5,2.5,2.5,0,0,1,2.5-2.5Zm-35.753-275.339h1.483V369.219h-1.483Zm.741,351.043a2.5,2.5,0,1,1-2.5,2.5A2.5,2.5,0,0,1,1372.913,526.014Zm-40.982,63a1.875,1.875,0,1,1-1.875,1.875A1.875,1.875,0,0,1,1331.931,589.011Z" fill="#1ba199"/>
        <path id="Path_76180" data-name="Path 76180" d="M1305.305,493.744l11.833-17.831a43.382,43.382,0,0,0-9.152-57.948h0a43.442,43.442,0,0,0-46.474-4.815l-23.38,6.878-.835.246-16.958,4.989-40.1,11.8-19.3,5.679c-.031.03-.061.061-.092.09l.6-18.8c-8.239-1.211-19.349.6-34.328,7.8-13.638,6.55-37.114,19.275-64.839,34.787l16.026,17.722,25.529,28.229,9.924,10.974,4.435,4.9.142.157,35.286,39.021,17.265-26.436,4.377,3.752,45.083,38.642,14.117,12.1,2.024,1.77-6.586,9.924-9.555,14.4-10.817,16.3a63.093,63.093,0,0,1-104.833.46l-3.872-5.725a538.829,538.829,0,0,0,11.468,101.142l108.054-30.524,17.794-5.027,23.572-6.659.1.087,23.155-6.646,2.3-.66c4.894,8.088,10.564,18.309,16.258,29.867a40.615,40.615,0,0,0-7.4-48.536c-.54-.524-1.066-1.06-1.64-1.559l-13.825-12.005-5.751-28.068,19.565-83.959Z" transform="translate(512.871 197.248)" fill="#d7f2f8"/>
        <path id="Path_76181" data-name="Path 76181" d="M1280.368,364.786a71.788,71.788,0,0,0-13.531-34.92c-.365-.5-.731-.995-1.108-1.483a72.558,72.558,0,0,0-33.8-24.219c-1.586-.545-3.193-1.045-4.827-1.483a73.142,73.142,0,0,0-8.649-1.756c-.232-.033-.461-.076-.695-.107l-17.1-2.259-.665-.088a51.448,51.448,0,0,0-43.574,15.093,50.88,50.88,0,0,0-10.574,15.912l-8.226,17.023a50.721,50.721,0,0,1-18.278,20.607l-12.011,7.708a7.578,7.578,0,0,0-2.493,11.752l8.579,6.593-6.318,23.172a25.352,25.352,0,0,0,15.806,26.69l19.707,7.784-.85,26.585-.6,18.8c.032-.03.061-.061.092-.09l19.3-5.679,40.1-11.8,16.958-4.989.652-4.86.182-.167,34.689-31.86a85.432,85.432,0,0,0,27.225-71.957Zm-140.27,1.031c-.031.1-.055.2-.083.3.028-.1.052-.194.083-.3Zm-.237.875c-.026.107-.047.207-.069.308.023-.1.043-.2.07-.309Zm-.164.769c-.017.094-.033.184-.047.272.015-.089.03-.176.048-.272Zm-.1.648c-.01.074-.02.15-.028.217.008-.07.017-.141.028-.218Zm-.058.511c0,.049-.01.1-.013.147,0-.045.008-.095.013-.147Zm-.026.359,0,.061Z" transform="translate(532.549 143.89)" fill="#ffa452"/>
        <path id="Path_76182" data-name="Path 76182" d="M1272.553,571.005l-14.117-12.1-45.083-38.642-4.377-3.751-17.265,26.437L1167.8,516.512l-10.019-11.08-1.361-1.5-.1-.111-4.476-4.95-9.924-10.974L1116.4,459.661l-16.62,12.323L1070.7,493.546l-6.184,4.585-9.923,7.357-14.763-29.18-18.91,10.853-.016.009c-9.76,5.624-19.457,11.23-28.918,16.713l-8.619,70.006,96.812-39.137,7.15-2.891h0l51.587,76.272,3.872,5.725a63.093,63.093,0,0,0,104.833-.46l10.817-16.3,9.554-14.4,6.586-9.924Z" transform="translate(474.774 221.927)" fill="#ff8f2f"/>
        <path id="Path_76183" data-name="Path 76183" d="M1069.037,464.323l-22.154,1.964h0l-8.549-7a10.037,10.037,0,0,1-.82-.754,9.9,9.9,0,0,1-.1-13.712l6.4-6.766,4.686-4.955c-16.385-4.224-38.13-6.813-62.013-6.865V365.647H985v60.582c-51.1.113-92.406,11.849-92.406,26.315,0,3.741,2.78,7.3,7.761,10.521l4.674,37.965-37.961,37.962L853.8,552.264a42.26,42.26,0,1,0,59.764,59.764l4.572-4.573.5,4.087a7.2,7.2,0,0,0,11.937,4.5L960.33,589.3a7.045,7.045,0,0,1,10.5,1.232l5.459,7.89,7.788,11.257a12.426,12.426,0,0,1,.808,12.8L971.267,648.7l-4.721,9.09h58.249a25.282,25.282,0,0,0,25.093-22.194l2.009-16.317,8.619-70.006L1071,464.149ZM975.7,439.973a2.5,2.5,0,1,1,2.5,2.5,2.5,2.5,0,0,1-2.5-2.5ZM912.512,610.98a40.777,40.777,0,1,1-57.668-57.667l13.272-13.273L905.26,502.9,917.9,605.589Z" transform="translate(406.242 176.537)" fill="#d7f2f8"/>
        <path id="Path_76184" data-name="Path 76184" d="M893.154,528.722l.5,4.087h0l-.5-4.087Z" transform="translate(431.22 255.27)" fill="#1ba199"/>
        <path id="Path_76185" data-name="Path 76185" d="M904.77,458.208l-37.144,37.143-13.272,13.273a40.792,40.792,0,0,0,46.466,65.62l-2.115-22.235a8.742,8.742,0,0,1,10.491-9.385h0a8.742,8.742,0,0,1,6.889,7.489l1.328,10.788h0Z" transform="translate(406.732 221.226)" fill="#1ba199"/>
        <path id="Path_76186" data-name="Path 76186" d="M1080.623,706.106h41.744L1093,656.641Z" transform="translate(521.732 317.03)" fill="#2e63ac"/>
        <path id="Path_76187" data-name="Path 76187" d="M1319.713,724.521c-.072-.86-.134-1.718-.221-2.583-3.312-33.095-17.327-69.25-31.2-97.4-5.694-11.558-11.364-21.778-16.258-29.867l-2.3.66-23.156,6.646-23.67,6.793-17.794,5.107-108.054,31.012-3.27,13.072,46.356,78.072h37.379l-2.26-9.77-26.447-51.708,13.811-2.933a.74.74,0,0,1,1.446-.321l14.973,64.732h141.175C1320.227,732.253,1320.037,728.408,1319.713,724.521Zm-35.124-69.757a23.233,23.233,0,0,1-6.681.987,22.819,22.819,0,0,1-21.674-15.71l-4.505-13.523-6.3-18.917a.742.742,0,1,1,1.407-.469l5.887,17.668,4.921,14.772a21.358,21.358,0,0,0,26.523,13.771.742.742,0,0,1,.426,1.421Z" transform="translate(528.091 287.109)" fill="#2e63ac"/>
        <path id="Path_76188" data-name="Path 76188" d="M1157.352,701.2l-12.635-54.628v-.014l-13.809,2.933Z" transform="translate(546.008 312.164)" fill="#0f5198"/>
        <path id="Path_76189" data-name="Path 76189" d="M1141.671,646.534a.74.74,0,0,0-1.446.32l.723-.153,13.3,57.512-1.39-2.717,2.26,9.77h1.523Z" transform="translate(550.499 311.87)" fill="#292852"/>
        <path id="Path_76190" data-name="Path 76190" d="M1159.5,364.014a13.039,13.039,0,0,1,.386-2.621A13.039,13.039,0,0,0,1159.5,364.014Z" transform="translate(559.812 174.483)" fill="#1ba199"/>
        <path id="Path_76191" data-name="Path 76191" d="M1007.551,431.6l-7.894.7-10.48,85.124c9.461-5.484,19.158-11.089,28.918-16.713h0l.016-.009q9.437-5.437,18.9-10.867Z" transform="translate(477.581 208.382)" fill="#1ba199"/>
        <path id="Path_76192" data-name="Path 76192" d="M1116.26,602.533a10.671,10.671,0,0,0-9.136-5.2h-5.078v90.083h-15.2v14.7h-85.509V597.334h-69.8a.86.86,0,0,0-.739,1.3l80.815,136.107h91.37l45.562-77.825Z" transform="translate(449.34 288.396)" fill="#1ba199"/>
        <path id="Path_76193" data-name="Path 76193" d="M922.446,709.054h69.007l-34.747-58.52Z" transform="translate(445.363 314.082)" fill="#1ba199"/>
        <path id="Path_76194" data-name="Path 76194" d="M1096.728,651.273l-33.62,57.425h25.971l12.374-49.465Z" transform="translate(513.275 314.439)" fill="#1ba199"/>
        <path id="Path_76195" data-name="Path 76195" d="M1186.665,604.025l-17.794,5.027v.3l17.794-5.107Z" transform="translate(564.338 291.627)" fill="#d7f2f9"/>
        <path id="Path_76196" data-name="Path 76196" d="M1180.308,418.091l.835-.246v-4.781l-.182.166Z" transform="translate(569.86 199.43)" fill="#d7f2f9"/>
        <path id="Path_76197" data-name="Path 76197" d="M1168.871,328.025l17.1,2.259c.234.031.463.074.7.107v-75.6h447.451V237H1168.871Z" transform="translate(564.338 114.425)" fill="#d7f2f9"/>
        <path id="Path_76198" data-name="Path 76198" d="M1242.785,345.973a85.432,85.432,0,0,1-27.226,71.957l-34.689,31.86v4.781l23.38-6.878a43.6,43.6,0,0,1,14.791-4.352h0a43.183,43.183,0,0,1,31.684,9.167h0a43.382,43.382,0,0,1,9.152,57.948l-11.833,17.831L1237.2,574.812h0l-19.565,83.96,5.751,28.068,13.826,12.005c.575.5,1.1,1.034,1.64,1.559l55.33-95.835A106.451,106.451,0,0,1,1439.6,565.6h0a106.452,106.452,0,0,1,38.964,145.416l-25.417,44.023a78.7,78.7,0,0,1,94.048-11.592h0a78.661,78.661,0,0,1,17.912,14.163V337H1241.251a72.128,72.128,0,0,1,1.535,8.978Z" transform="translate(570.132 162.703)" fill="#3b8dfe"/>
        <path id="Path_76199" data-name="Path 76199" d="M1204.443,599.534l-23.572,6.659v.222l23.67-6.794Z" transform="translate(570.132 289.459)" fill="#3b8dfe"/>
        <path id="Path_76200" data-name="Path 76200" d="M1434.269,685.257l25.417-44.023a106.451,106.451,0,0,0-38.964-145.416h0a106.451,106.451,0,0,0-145.415,38.964l-55.331,95.835a40.614,40.614,0,0,1,7.4,48.535c13.871,28.154,27.886,64.309,31.2,97.4l53.965-93.469-9.818-66.335,1.467-.217,9.544,64.486,47.793-82.78,1.284.741L1258.792,779.14c.324,3.886.514,7.732.514,11.506H1369.92l50.912-88.182A78.668,78.668,0,0,1,1434.269,685.257Z" transform="translate(589.012 232.49)" fill="#2480fe"/>
        <path id="Path_91013" data-name="Path 91013" d="M1438.886,689.646l25.964-44.971a108.745,108.745,0,0,0-39.8-148.549h0a108.744,108.744,0,0,0-148.548,39.8l-56.523,97.9a41.489,41.489,0,0,1,7.557,49.581c14.17,28.761,28.487,65.695,31.871,99.5l55.127-95.483L1304.5,619.666l1.5-.222,9.75,65.875,48.823-84.563,1.312.757L1259.628,785.552c.331,3.97.525,7.9.525,11.755h113l52.009-90.082A80.367,80.367,0,0,1,1438.886,689.646Z" transform="translate(711.538 407.453)" fill="#2480fe"/>
        <path id="Path_76201" data-name="Path 76201" d="M1478.354,614.539h0a78.7,78.7,0,0,0-94.047,11.592l-60.848,105.39h87.289l43.882-76.005,1.285.741-43.453,75.264h83.806V628.7a78.653,78.653,0,0,0-17.912-14.163Z" transform="translate(638.974 291.616)" fill="#2480fe"/>
        <path id="Path_76202" data-name="Path 76202" d="M1372.009,636.134,1321.1,724.315h3.5l60.847-105.39A78.67,78.67,0,0,0,1372.009,636.134Z" transform="translate(637.834 298.821)" fill="#2480fe"/>
        <path id="Path_76203" data-name="Path 76203" d="M1350.24,560.984l-1.285-.741-47.793,82.78.311,2.1-1.467.217-.038-.255L1246,738.558c.087.865.149,1.723.221,2.583Z" transform="translate(601.579 270.489)" fill="#3b8dfe"/>
        <path id="Path_76204" data-name="Path 76204" d="M1426.208,638.742l-43.881,76.006h1.713l43.453-75.264Z" transform="translate(667.396 308.389)" fill="#3b8dfe"/>
        <path id="Path_76205" data-name="Path 76205" d="M1277.244,572.58l-1.467.218,9.818,66.335,1.194-2.067Z" transform="translate(615.953 276.445)" fill="#3b8dfe"/>
        <path id="Path_76206" data-name="Path 76206" d="M1283.9,618.173l-.311-2.1-1.194,2.067.037.255Z" transform="translate(619.15 297.442)" fill="#3b8dfe"/>
        <path id="Path_76207" data-name="Path 76207" d="M1227.866,345.442h507.821V319.5H1213.5a67.1,67.1,0,0,1,14.366,25.942Z" transform="translate(581.556 154.258)" fill="#0064dc"/>
        <path id="Path_76208" data-name="Path 76208" d="M1229.806,326.386h527.248V302.167H1189.959c15.783,4.6,29.634,13.022,39.847,24.219Z" transform="translate(565.834 145.889)" fill="#0064dc"/>
        <path id="Path_76209" data-name="Path 76209" d="M1180.871,324.6a98.916,98.916,0,0,1,10.142,1.756H1753.9V302.134H1181.082v-1.483H1753.9V276.432H1181.082v-1.483H1753.9V249H1180.871Z" transform="translate(570.132 120.219)" fill="#0064dc"/>
        <rect id="Rectangle_960" data-name="Rectangle 960" width="384.058" height="1.483" transform="translate(1751.183 395.168)" fill="#3b8dfe"/>
        <rect id="Rectangle_961" data-name="Rectangle 961" width="384.058" height="1.483" transform="translate(1751.183 420.87)" fill="#3b8dfe"/>
        <path id="Path_76210" data-name="Path 76210" d="M1191.531,302.649h370.762v-1.483H1186.7C1188.338,301.6,1189.945,302.1,1191.531,302.649Z" transform="translate(572.948 145.405)" fill="#3b8dfe"/>
        <path id="Path_76211" data-name="Path 76211" d="M1213.861,319.983h335.855V318.5H1212.754C1213.131,318.988,1213.5,319.485,1213.861,319.983Z" transform="translate(585.525 153.774)" fill="#3b8dfe"/>
        <path id="Path_76212" data-name="Path 76212" d="M990.96,402.367l-3.419-1.572h0l3.419,1.572Z" transform="translate(476.791 193.506)" fill="#c973c9"/>
        <path id="Path_76213" data-name="Path 76213" d="M983.092,415.912l12.81-13.545h0l-3.419-1.572-15.177,11.057Z" transform="translate(471.849 193.506)" fill="#c973c9"/>
        <path id="Path_76214" data-name="Path 76214" d="M991.983,494.926l-8.619,70.006,96.812-39.137L1020.9,478.213C1011.14,483.837,1001.444,489.443,991.983,494.926Z" transform="translate(474.774 230.884)" fill="#ffa452"/>
        <path id="Path_76215" data-name="Path 76215" d="M1027.593,470.878q-9.444,5.416-18.9,10.867l18.91-10.853Z" transform="translate(487.002 227.343)" fill="#ffa452"/>
        <path id="Path_76216" data-name="Path 76216" d="M1204.3,455.9a23.6,23.6,0,0,1-11.333-26.207l.19-.752a17.632,17.632,0,0,0,18.453-6.668,17.4,17.4,0,0,0-10.952-27.346,17.644,17.644,0,0,0-11.97,2.016h0a12.955,12.955,0,0,1-1.545-10.014l8.111-32.13a13.449,13.449,0,0,1-9.823-16.326L1190.349,319c-16.24.769-26.627-3.742-33.927-10.493a50.878,50.878,0,0,0-10.574,15.912l-8.226,17.023a50.72,50.72,0,0,1-18.279,20.607l-12.01,7.708a7.578,7.578,0,0,0-2.494,11.752l8.579,6.593-6.318,23.172a25.352,25.352,0,0,0,15.806,26.691l19.707,7.784,15.733,6.236-16.238,9.562.5-15.8-.85,26.585-.6,18.8c.031-.03.061-.061.092-.09l19.3-5.679,40.1-11.8,16.958-4.989.652-4.86Zm-77.761-52.15a.74.74,0,0,1-1.045-.08l-8.53-9.951a.741.741,0,0,1,1.125-.964l8.53,9.951a.74.74,0,0,1-.081,1.045Zm17.764-35.872h0l-.008,0c-.176-.108-.331-.213-.5-.32-.2-.131-.421-.264-.611-.393-.285-.193-.544-.381-.8-.567-.054-.039-.118-.082-.17-.121-.283-.211-.54-.414-.78-.608l-.045-.034c-.649-.528-1.116-.965-1.432-1.277-.172-.17-.313-.314-.385-.392-.051-.055-.077-.085-.077-.085a14.178,14.178,0,0,1,1.371-5.371c.172-.376.365-.76.584-1.153a18.366,18.366,0,0,1,6.734-6.8l.1.07c.981.7,9.539,7.169,9.866,21.111a28.058,28.058,0,0,1-13.851-4.052Zm26.987-7.95a.741.741,0,0,1-1,.323,26.544,26.544,0,0,1-12.878-20.969.742.742,0,0,1,1.479-.116,24.955,24.955,0,0,0,12.073,19.764.741.741,0,0,1,.324,1Z" transform="translate(532.549 148.949)" fill="#ffa452"/>
        <path id="Path_76217" data-name="Path 76217" d="M1053.476,509.023h0l5.095-2.06Z" transform="translate(508.625 244.765)" fill="#ffa452"/>
        <path id="Path_76218" data-name="Path 76218" d="M1232.013,571.781l-45.083-51.518-4.377-3.752-17.265,26.437-23.906-26.436h0l-10.02-11.08-1.36-1.5-.1-.111-4.476-4.95-9.924-10.974-25.528-28.231-16.62,12.323-29.079,21.561-6.183,4.585,22.814,33.73h0l51.587,76.272,3.872,5.725A63.094,63.094,0,0,0,1221.2,613.4l10.817-16.3,9.554-14.4Z" transform="translate(501.197 221.927)" fill="#ffa452"/>
        <path id="Path_76219" data-name="Path 76219" d="M1042.368,500.068l-14.763-29.18-18.91,10.853-.016.009,59.275,47.582,7.15-2.891h0l-22.813-33.729Z" transform="translate(486.996 227.348)" fill="#ff8f2f"/>
        <path id="Path_76220" data-name="Path 76220" d="M1129.888,401.062l-.5,15.8,16.238-9.561Z" transform="translate(545.274 193.635)" fill="#ff8f2f"/>
        <path id="Path_76221" data-name="Path 76221" d="M1197.667,551.273l-14.118-12.1-45.082-38.642,45.082,51.519,9.555,10.918,6.587-9.924Z" transform="translate(549.659 241.659)" fill="#ff8f2f"/>
        <path id="Path_76222" data-name="Path 76222" d="M980.528,396.219a7.413,7.413,0,0,0-7.354,12.8l7.651,5.368L996,403.331Z" transform="translate(468.331 190.969)" fill="#dc84db"/>
        <path id="Path_76223" data-name="Path 76223" d="M977.306,408.252l5.786,4.06-5.786-4.06Z" transform="translate(471.849 197.107)" fill="#dc84db"/>
        <path id="Path_76224" data-name="Path 76224" d="M1105.968,474.349l-67.052-74.15a23.279,23.279,0,0,0-33.584-.989l-6.757,7.145L985.764,419.9l-.2.214-4.686,4.955-6.4,6.766a9.9,9.9,0,0,0,.1,13.712,10.043,10.043,0,0,0,.819.754l8.55,7,0,0,22.154-1.964,1.959-.174,7.894-.7H1031.5l-8.014,14.892-7.534-14.892,29.463,58.235.007.015,14.763,29.18,9.923-7.358,6.183-4.585,29.079-21.561,16.62-12.323Z" transform="translate(469.177 189.518)" fill="#dc84db"/>
        <path id="Path_76225" data-name="Path 76225" d="M899.1,533.474l-1.328-10.788a8.742,8.742,0,0,0-6.888-7.489h0a8.742,8.742,0,0,0-10.491,9.385l2.115,22.235a40.809,40.809,0,0,0,11.2-7.953Z" transform="translate(425.041 248.651)" fill="#dc84db"/>
        <path id="Path_76226" data-name="Path 76226" d="M956.741,526.191l-5.459-7.89a7.045,7.045,0,0,0-10.5-1.232L911.023,543.8a7.2,7.2,0,0,1-11.937-4.5h0l-.5-4.087-4.573,4.573a42.27,42.27,0,0,1-12.1,8.473l2.778,29.2a28.436,28.436,0,0,0,20.753,24.72l6.616,1.824a28.435,28.435,0,0,0,32.567-13.887L947,585.554l4.721-9.09,13.62-26.22a12.427,12.427,0,0,0-.808-12.8Z" transform="translate(425.792 248.772)" fill="#dc84db"/>
        <path id="Path_76227" data-name="Path 76227" d="M1017.117,431.605h-15.549L1009.1,446.5Z" transform="translate(483.563 208.382)" fill="#c973c9"/>
        <path id="Path_76228" data-name="Path 76228" d="M1152.855,701.253l1.389,2.716-13.3-57.512-.724.154v.013Z" transform="translate(550.505 312.113)" fill="#292852"/>
        <path id="Path_76229" data-name="Path 76229" d="M1196.536,602.77a.743.743,0,0,0-.469.938l6.3,18.917.991-1.718-5.887-17.669A.743.743,0,0,0,1196.536,602.77Z" transform="translate(577.45 291.003)" fill="#292852"/>
        <path id="Path_76230" data-name="Path 76230" d="M1204.81,630.23a22.819,22.819,0,0,0,21.674,15.71,23.236,23.236,0,0,0,6.681-.988.741.741,0,1,0-.426-1.421,21.358,21.358,0,0,1-26.523-13.771l-4.921-14.772-.992,1.718Z" transform="translate(579.515 296.921)" fill="#292852"/>
        <path id="Path_76231" data-name="Path 76231" d="M952.426,636.776l-46.2,78.921h24.056l34.26-58.52Z" transform="translate(437.53 307.439)" fill="#009285"/>
        <path id="Path_76232" data-name="Path 76232" d="M937.555,604.527a.762.762,0,0,1,.747-.435h69.8V585a7.048,7.048,0,0,1,.218-1.666H938.3a21.62,21.62,0,0,0-18.589,32.656l27.662,46.589,12.112,20.4L994.235,741.5h24.143L937.563,605.393A.762.762,0,0,1,937.555,604.527Zm21.487,61.72a2.224,2.224,0,1,1,2.224-2.224A2.224,2.224,0,0,1,959.042,666.247Z" transform="translate(442.58 281.637)" fill="#20c1b0"/>
        <path id="Path_76233" data-name="Path 76233" d="M1121.7,663.427l-38.435-64.733a31.524,31.524,0,0,0-26.986-15.361h-13.644a6.7,6.7,0,0,0-6.633,6.633v14.127h20.277a10.671,10.671,0,0,1,9.136,5.2l32.289,54.382,2.816-4.811a10.38,10.38,0,1,1,17.915,10.488l-8.619,14.723,4.726,7.96,29.37,49.465h24.143Z" transform="translate(500.187 281.637)" fill="#20c1b0"/>
        <path id="Path_76234" data-name="Path 76234" d="M1092.447,637.515l-45.562,77.825h24.055l33.62-57.425Z" transform="translate(505.443 307.796)" fill="#009285"/>
        <path id="Path_76235" data-name="Path 76235" d="M1094.63,632.23a10.379,10.379,0,0,0-14.2,3.714l-2.817,4.811,12.113,20.4,8.619-14.723a10.38,10.38,0,0,0-3.713-14.2Zm-4.58,11.1a2.224,2.224,0,1,1,2.224-2.224A2.224,2.224,0,0,1,1090.05,643.327Z" transform="translate(520.278 304.557)" fill="#009285"/>
        <path id="Path_76236" data-name="Path 76236" d="M1113.605,365.4a.741.741,0,0,0-1.125.964l8.53,9.951a.741.741,0,1,0,1.125-.964Z" transform="translate(537.036 176.303)" fill="#de5f06"/>
        <path id="Path_76237" data-name="Path 76237" d="M966.552,447.144a283.693,283.693,0,0,1-51.974-4.476c-.592-.113-1.165-.233-1.748-.349-13.8-2.758-24.824-6.547-31.665-10.974l4.674,37.965.23,1.867,1.436,11.667,100.019-36.371-.006-.007C980.777,446.9,973.765,447.144,966.552,447.144Z" transform="translate(425.432 208.256)" fill="#91d8e8"/>
        <path id="Path_76238" data-name="Path 76238" d="M1036,617.953v69.464h15.2V597.333H1036Z" transform="translate(500.187 288.396)" fill="#91d8e8"/>
        <path id="Path_76239" data-name="Path 76239" d="M1224.622,536.925,1222,534.674,1204.182,519.4l-17.794-15.251-29.206-25.033a5.193,5.193,0,0,0-.465-.324,5.276,5.276,0,0,0-7.091.906l-15.746,18.37a5.36,5.36,0,0,0,.581,7.557l2.466,2.114,4.377,3.752,45.083,38.642,14.117,12.1,1.4,1.2a5.8,5.8,0,0,0,2.281,1.129,5.338,5.338,0,0,0,5.276-1.71l15.745-18.37a5.359,5.359,0,0,0-.581-7.556Z" transform="translate(546.821 230.696)" fill="#91d8e8"/>
        <path id="Path_76240" data-name="Path 76240" d="M1130.866,354.1a28.058,28.058,0,0,0,13.852,4.053c-.326-13.941-8.884-20.413-9.866-21.111a21.653,21.653,0,0,1,4.286,4.356,12.072,12.072,0,0,1-1.33,6.741,11.288,11.288,0,0,1-6.942,5.96Z" transform="translate(545.989 162.726)" fill="#fff"/>
        <path id="Path_76241" data-name="Path 76241" d="M1030.219,466.287h0a231.846,231.846,0,0,1-45.2,6.252c-4.969.245-10.044.378-15.195.39V432.16c21.247.047,41.287,2.119,57.327,5.89l4.686-4.955c-16.385-4.224-38.13-6.813-62.013-6.865V365.647h-1.483v60.582c-51.1.113-92.406,11.849-92.406,26.315,0,3.741,2.78,7.3,7.761,10.521,6.842,4.427,17.867,8.216,31.665,10.974.582.116,1.155.236,1.748.349a283.689,283.689,0,0,0,51.974,4.476c7.213,0,14.225-.239,20.967-.678,27.33-1.777,50.056-6.948,62.327-13.863Zm-109.793,2.684c-5.583-1-10.822-2.173-15.6-3.523a83.866,83.866,0,0,1-13.607-4.961c-7.393-3.575-9.357-6.713-9.357-7.943,0-1.784,4.126-7.581,22.964-12.9,16.909-4.777,39.439-7.426,63.511-7.48v40.767a283.875,283.875,0,0,1-46.133-3.639c-.6-.1-1.187-.211-1.78-.318Z" transform="translate(422.905 176.537)" fill="#fff"/>
        <path id="Path_76242" data-name="Path 76242" d="M1305.305,493.744l11.833-17.831a43.382,43.382,0,0,0-9.152-57.948h0a43.442,43.442,0,0,0-46.474-4.815l-23.38,6.878-.835.246-16.958,4.989-40.1,11.8-19.3,5.679c-.031.03-.061.061-.092.09l.6-18.8c-8.239-1.211-19.349.6-34.328,7.8-13.638,6.55-37.114,19.275-64.839,34.787l16.026,17.722,25.529,28.229,42.883-54.419.079-.053c-15.342,19.125-25.927,41.643-33.037,65.445l4.435,4.9.142.157,35.286,39.021,17.266-26.436-2.466-2.114a5.36,5.36,0,0,1-.581-7.557l15.746-18.37a5.353,5.353,0,0,1,5.792-1.579.716.716,0,0,1,.051-.128l30.919-47.341,1.543-2.363a.741.741,0,1,1,1.241.811l-2.784,4.263-29.671,45.431a5.322,5.322,0,0,1,.465.324l29.206,25.033,17.793,15.251,17.814,15.269,2.626,2.251a5.359,5.359,0,0,1,.581,7.557l-15.745,18.37a5.338,5.338,0,0,1-5.276,1.71,5.8,5.8,0,0,1-2.281-1.129l-1.4-1.2,2.024,1.77-6.586,9.924-9.555,14.4-10.817,16.3a63.094,63.094,0,0,1-104.833.46l-3.872-5.725a538.857,538.857,0,0,0,11.466,101.142l108.054-30.524,17.794-5.027,23.572-6.659.1.087,23.155-6.646,2.3-.66c4.894,8.088,10.564,18.309,16.258,29.867a40.615,40.615,0,0,0-7.4-48.536c-.54-.524-1.066-1.06-1.64-1.559l-13.825-12.005-5.751-28.068,19.565-83.959-35.4,23.153,31.412-47.334Z" transform="translate(512.871 197.248)" fill="#fff"/>
        <path id="Path_76243" data-name="Path 76243" d="M1074.267,579.673H985.427a7.185,7.185,0,0,0-7.094,7.094V710.645h85.508V591.733a6.7,6.7,0,0,1,6.633-6.633h8.566v-.653a4.775,4.775,0,0,0-4.774-4.774Z" transform="translate(472.345 279.87)" fill="#fff"/>
        <rect id="Rectangle_962" data-name="Rectangle 962" width="1.483" height="507.786" transform="translate(1391.243)" fill="#fff"/>
        <rect id="Rectangle_963" data-name="Rectangle 963" width="1.483" height="120.889" transform="translate(1407.183 321.028)" fill="#fff"/>
        <rect id="Rectangle_964" data-name="Rectangle 964" width="1.483" height="194.248" transform="translate(1372.171 174.971)" fill="#fff"/>
        <circle id="Ellipse_385" data-name="Ellipse 385" cx="2.502" cy="2.502" r="2.502" transform="translate(1405.422 450.31)" fill="#fff"/>
        <path id="Path_76244" data-name="Path 76244" d="M950.111,395.963a1.875,1.875,0,1,0,1.875,1.875A1.875,1.875,0,0,0,950.111,395.963Z" transform="translate(457.814 191.173)" fill="#fff"/>
        <path id="Path_76245" data-name="Path 76245" d="M898.861,400.978a1.875,1.875,0,1,0-1.875-1.875A1.875,1.875,0,0,0,898.861,400.978Z" transform="translate(433.07 191.784)" fill="#fff"/>
        <circle id="Ellipse_386" data-name="Ellipse 386" cx="2.502" cy="2.502" r="2.502" transform="translate(1381.945 614.008)" fill="#fff"/>
        <circle id="Ellipse_387" data-name="Ellipse 387" cx="2.502" cy="2.502" r="2.502" transform="translate(1370.411 526.014)" fill="#fff"/>
        <path id="Path_76246" data-name="Path 76246" d="M1261.449,355.808a71.79,71.79,0,0,0-12-25.942c-.365-.5-.73-.995-1.107-1.483a72.559,72.559,0,0,0-33.8-24.219c-1.586-.545-3.193-1.045-4.827-1.483a73.132,73.132,0,0,0-8.649-1.756c-.232-.033-.461-.076-.695-.107l-17.1-2.259-.665-.088a51.448,51.448,0,0,0-43.574,15.093c7.3,6.751,17.686,11.262,33.927,10.493l-4.915,19.472a13.448,13.448,0,0,0,9.823,16.326l-8.111,32.13A12.954,12.954,0,0,0,1171.305,402h0a17.661,17.661,0,0,1,19.019.986,17.4,17.4,0,0,1-7.049,31.228,17.637,17.637,0,0,1-7.5-.216l-.19.752a23.6,23.6,0,0,0,11.333,26.207l13.968,7.814.182-.167,34.689-31.86a85.431,85.431,0,0,0,27.226-71.957A72.06,72.06,0,0,0,1261.449,355.808Z" transform="translate(549.934 143.89)" fill="#0a3360"/>
        <path id="Path_76247" data-name="Path 76247" d="M1136.416,337.065l-.1-.07a18.367,18.367,0,0,0-6.734,6.8c-.218.393-.412.777-.584,1.153s-.322.741-.454,1.093a13.432,13.432,0,0,0-.918,4.277s.026.03.077.085c.072.078.213.222.385.392.317.313.784.749,1.432,1.277l.045.034c.239.194.5.4.78.608.052.039.116.081.17.121.252.186.511.373.8.567.191.129.406.262.611.393.167.107.322.212.5.32l.008.005h0a11.289,11.289,0,0,0,6.942-5.96,12.078,12.078,0,0,0,1.33-6.741,21.653,21.653,0,0,0-4.286-4.357Z" transform="translate(544.426 162.703)" fill="#0a3360"/>
        <path id="Path_76248" data-name="Path 76248" d="M1153.262,349.168a24.956,24.956,0,0,1-12.074-19.764.741.741,0,1,0-1.478.116,26.544,26.544,0,0,0,12.877,20.969.742.742,0,1,0,.674-1.321Z" transform="translate(550.258 158.709)" fill="#0a3360"/>
        <path id="Path_76249" data-name="Path 76249" d="M879.932,430.887c0,1.231,1.964,4.368,9.356,7.943A83.872,83.872,0,0,0,902.9,443.79c4.777,1.349,10.016,2.523,15.6,3.523.593.106,1.178.216,1.78.318a283.879,283.879,0,0,0,46.133,3.639V410.5c-24.072.054-46.6,2.7-63.511,7.48C884.057,423.306,879.932,429.1,879.932,430.887Zm79.679-15.073a2.5,2.5,0,1,1-2.5,2.5A2.5,2.5,0,0,1,959.61,415.814Z" transform="translate(424.836 198.194)" fill="#0a3360"/>
        <path id="Path_76250" data-name="Path 76250" d="M990.278,436.872a9.9,9.9,0,0,1-.1-13.712l6.4-6.766c-16.039-3.771-36.079-5.842-57.326-5.89v40.767c5.151-.012,10.226-.145,15.195-.39a231.854,231.854,0,0,0,45.2-6.252l-8.55-7a10.018,10.018,0,0,1-.82-.754Z" transform="translate(453.476 198.194)" fill="#0a3360"/>
        <circle id="Ellipse_388" data-name="Ellipse 388" cx="2.224" cy="2.224" r="2.224" transform="translate(1608.103 943.435)" fill="#0a3360"/>
        <circle id="Ellipse_389" data-name="Ellipse 389" cx="2.224" cy="2.224" r="2.224" transform="translate(1399.398 943.435)" fill="#0a3360"/>
        <path id="Path_76251" data-name="Path 76251" d="M985.922,446.113l.006.007L885.909,482.491l-1.436-11.667,12.643,102.692,73.35-73.349a8.068,8.068,0,1,1,1.048,1.049l-74.168,74.168.5,4.087a7.2,7.2,0,0,0,11.937,4.5l29.758-26.737a7.045,7.045,0,0,1,10.5,1.232l5.459,7.891,7.788,11.257a12.426,12.426,0,0,1,.808,12.8l-13.62,26.221-4.721,9.09h58.249a25.282,25.282,0,0,0,25.092-22.193l2.009-16.318,8.619-70.006,10.48-85.124-1.959.174C1035.978,439.165,1013.253,444.336,985.922,446.113Z" transform="translate(427.029 208.609)" fill="#d7f2f8"/>
        <path id="Path_76252" data-name="Path 76252" d="M997.36,475.13a7.979,7.979,0,0,0-7.97,7.97,7.891,7.891,0,0,0,1.863,5.059L917.9,561.508l-5.391,5.391a40.777,40.777,0,1,1-57.668-57.667l13.272-13.273,37.144-37.143-.23-1.867L867.068,494.91,853.8,508.183a42.26,42.26,0,1,0,59.764,59.764l4.572-4.573L992.3,489.207a7.954,7.954,0,1,0,5.058-14.078Zm0,14.457a6.487,6.487,0,1,1,6.487-6.487A6.487,6.487,0,0,1,997.36,489.587Z" transform="translate(406.242 220.618)" fill="#0a3360"/>
        <path id="Path_76253" data-name="Path 76253" d="M1090.3,496.436l9.924,10.974c7.11-23.8,17.7-46.32,33.037-65.445l-.079.053Z" transform="translate(526.402 213.383)" fill="#d7f2f8"/>
        <path id="Path_76254" data-name="Path 76254" d="M1241.229,466,1226.4,488.346l-31.412,47.334,35.4-23.154Z" transform="translate(576.948 224.989)" fill="#d7f2f8"/>
        <path id="Path_76255" data-name="Path 76255" d="M1181.524,444.313a.741.741,0,0,0-1.026.215l-1.543,2.363-30.918,47.342a.713.713,0,0,0-.051.128,5.245,5.245,0,0,1,1.3.673l29.671-45.431,2.784-4.263a.741.741,0,0,0-.215-1.027Z" transform="translate(554.255 214.459)" fill="#d7f2f8"/>
        <circle id="Ellipse_390" data-name="Ellipse 390" cx="6.487" cy="6.487" r="6.487" transform="translate(1397.114 697.23)" fill="#d7f2f8"/>
      </g>
    </g>
  </g>
</svg>
